<svg xmlns="http://www.w3.org/2000/svg"  viewBox="0 0 100 100" width="35px" height="35px"><path fill="#1d1d1b" d="M51.9,86c-12.4,0-23.2-1.3-28.5-2.1c-6.6-0.9-11.9-6-13.1-12.6C9.6,67.2,8.7,60.5,8.7,52	c0-8.5,0.8-15.2,1.6-19.3c1.3-6.7,6.6-11.7,13.2-12.7c4.1-0.6,15.2-2.1,28.4-2.1c11.8,0,22,1.1,28.5,2.1c6.6,0.9,11.9,6,13.1,12.6	c0.8,4.4,1.8,11.1,1.8,19.4l0,0.1c-0.2,8.7-1.1,15.2-1.7,19.2l0,0.1C92.3,77.9,87,83,80.3,83.9C76.2,84.5,65.2,86,51.9,86z" opacity=".35"/><path fill="#f2f2f2" d="M49.9,84c-12.4,0-23.2-1.3-28.5-2.1c-6.6-0.9-11.9-6-13.1-12.6C7.6,65.2,6.7,58.5,6.7,50	c0-8.5,0.8-15.2,1.6-19.3c1.3-6.7,6.6-11.7,13.2-12.7c4.1-0.6,15.2-2.1,28.4-2.1c11.8,0,22,1.1,28.5,2.1c6.6,0.9,11.9,6,13.1,12.6	c0.8,4.4,1.8,11.1,1.8,19.4l0,0.1c-0.2,8.7-1.1,15.2-1.7,19.2l0,0.1C90.3,75.9,85,81,78.3,81.9C74.2,82.5,63.2,84,49.9,84z"/><path fill="#f4665c" d="M85.1,68.2c-0.7,3.9-3.9,6.8-7.7,7.3c-6.1,0.9-16.1,2-27.5,2c-11.2,0-21.3-1.1-27.5-2c-3.9-0.6-7-3.5-7.7-7.3	C14,63.9,13.2,57.7,13.2,50s0.7-13.9,1.5-18.2c0.7-3.9,3.9-6.8,7.7-7.3c6.1-0.9,16.1-2,27.5-2s21.3,1.1,27.5,2	c3.9,0.5,7,3.5,7.7,7.3c0.7,4.2,1.7,10.5,1.7,18.2C86.6,57.7,85.9,63.9,85.1,68.2z"/><path fill="#40396e" d="M49.9,79c-12.1,0-22.6-1.3-27.7-2c-4.5-0.6-8.1-4.1-9-8.5c-0.7-3.9-1.5-10.3-1.5-18.4s0.8-14.5,1.5-18.4	c0.9-4.5,4.5-7.9,9-8.6c4-0.6,14.8-2,27.7-2c11.5,0,21.4,1.1,27.7,2c4.5,0.6,8.1,4.1,9,8.5c0.7,4.2,1.7,10.6,1.7,18.4	c-0.2,8.4-1,14.7-1.7,18.4l0,0c-0.9,4.5-4.5,7.9-9,8.5C73.6,77.6,62.8,79,49.9,79z M49.9,24c-12.7,0-23.3,1.4-27.3,2	c-3.3,0.5-5.8,2.9-6.5,6.1c-0.7,3.8-1.4,9.9-1.4,17.9s0.8,14.1,1.4,17.9c0.6,3.2,3.2,5.6,6.4,6.1c5.1,0.7,15.4,2,27.3,2	c12.7,0,23.3-1.4,27.3-2c3.3-0.5,5.8-2.9,6.5-6.1c0.5-3,1.4-9.3,1.6-17.9c0-7.6-0.9-13.8-1.6-17.9c-0.6-3.2-3.2-5.6-6.4-6.1	C71,25.1,61.2,24,49.9,24z"/><path fill="#f2f2f2" d="M42,63V37l22,13L42,63z"/></svg>